<svg width="64" height="71" viewBox="0 0 64 71" fill="none" xmlns="http://www.w3.org/2000/svg">
<path d="M2.3264 28.7879C2.3264 16.4059 2.3264 10.2132 6.17464 6.36826C10.0196 2.52002 16.2122 2.52002 28.5942 2.52002H35.1612C47.5432 2.52002 53.7359 2.52002 57.5808 6.36826C61.4291 10.2132 61.4291 16.4059 61.4291 28.7879V41.9218C61.4291 54.3038 61.4291 60.4964 57.5808 64.3414C53.7359 68.1896 47.5432 68.1896 35.1612 68.1896H28.5942C16.2122 68.1896 10.0196 68.1896 6.17464 64.3414C2.3264 60.4964 2.3264 54.3038 2.3264 41.9218V28.7879Z" stroke="black" stroke-width="4.47429"/>
<path d="M18.7438 28.7876H45.0117M18.7438 41.9215H35.1612" stroke="black" stroke-width="4.47429" stroke-linecap="round"/>
</svg>
