<svg width="100" height="400" viewBox="0 0 33 33" fill="none" xmlns="http://www.w3.org/2000/svg">
<path d="M29.9789 16.7658C29.6239 13.4258 27.7537 10.725 25.2713 8.88531C22.7618 7.02375 19.6223 6.00197 16.6484 6C13.5617 6.00049 11.6576 6.39227 10.397 6.93417C9.15146 7.46158 8.55001 8.19089 8.21975 8.62089C6.87007 8.84123 5.52574 9.6243 4.4589 10.7371C3.32616 11.9265 2.50295 13.5168 2.5 15.2645C2.5 17.177 2.94362 18.793 3.82885 19.9949C4.61383 21.0665 5.75866 21.7707 7.12141 22.0264C7.21099 22.5435 7.42548 23.1203 7.8691 23.6477C8.32913 24.1979 8.95672 24.5984 9.69861 24.8526C10.4415 25.1083 11.3025 25.2264 12.2817 25.2274H16.3879C16.489 25.486 16.6125 25.7325 16.7825 25.95C17.2005 26.4851 17.8024 26.8608 18.5235 27.0962C19.248 27.333 20.1017 27.4401 21.0935 27.4405C21.5807 27.4405 22.0422 27.4183 22.434 27.3994H22.4354C22.7163 27.3844 22.958 27.3737 23.1298 27.3737C23.6475 27.3737 24.143 27.2479 24.5691 27.0008C24.9953 26.7549 25.3488 26.3902 25.5904 25.9423C25.7125 25.7151 25.7929 25.4769 25.8529 25.2367C26.7677 25.0657 27.5266 24.7316 28.1174 24.3055C28.8099 23.8067 29.2859 23.2057 29.6094 22.6599C30.2414 21.5907 30.499 20.4042 30.5 19.303C30.499 18.3644 30.3091 17.4903 29.9789 16.7658ZM28.5237 22.0167C28.2694 22.4453 27.9028 22.9049 27.3798 23.2811C26.8559 23.6569 26.1744 23.9581 25.2437 24.0642L24.7232 24.1228L24.6849 24.6453C24.6689 24.871 24.5987 25.1248 24.4805 25.3431C24.3435 25.5935 24.1614 25.7786 23.9381 25.9083C23.7139 26.0372 23.4456 26.1112 23.1298 26.1117C22.9071 26.1117 22.6533 26.1248 22.372 26.1388L22.4771 26.134L22.3724 26.1388C21.9817 26.1582 21.5424 26.179 21.0935 26.179C19.8935 26.181 18.999 25.9955 18.4276 25.6943C18.1405 25.5447 17.9322 25.3713 17.7777 25.1742C17.6242 24.9761 17.5201 24.7509 17.4615 24.4696L17.3574 23.9655H12.2818C11.4062 23.9655 10.6793 23.8565 10.1093 23.6604C9.53838 23.4623 9.12822 23.1858 8.83619 22.8372C8.45557 22.3829 8.34269 21.89 8.3282 21.457L8.31125 20.9059L7.76306 20.8488C6.47687 20.7077 5.52717 20.1639 4.8439 19.2457C4.16447 18.3262 3.76158 16.9871 3.76158 15.2646C3.75863 13.929 4.41094 12.6137 5.37174 11.6074C6.32675 10.5982 7.5844 9.92989 8.62121 9.83206L8.859 9.80734L9.0212 9.63201C9.09382 9.5526 9.15146 9.47609 9.20134 9.41315C9.5287 9.00442 9.86382 8.54876 10.8968 8.09305C11.9273 7.64702 13.6668 7.2606 16.6484 7.26109C19.3323 7.25912 22.2418 8.20346 24.5197 9.89795C26.8016 11.5958 28.4452 14.0079 28.7358 16.9842L28.7469 17.099L28.7973 17.2022C29.0622 17.7368 29.24 18.4932 29.2384 19.3029C29.2384 20.208 29.0229 21.1746 28.5237 22.0167Z" fill="white"/>
<path d="M22.0255 10.7275H23.3412C23.624 10.7275 23.8541 10.4955 23.8541 10.2039C23.8541 9.91874 23.624 9.68823 23.3412 9.68823H22.0255C21.7339 9.68823 21.5029 9.91879 21.5029 10.2039C21.503 10.4955 21.7339 10.7275 22.0255 10.7275Z" fill="white"/>
<path d="M15.855 15.698C15.855 15.9871 16.0874 16.221 16.3746 16.221C16.6569 16.221 16.8927 15.9872 16.8927 15.698V12.8641C16.8927 12.7329 16.9315 12.7023 16.9412 12.6902C17.1063 12.528 17.7218 12.528 18.1533 12.528L18.1697 12.5338H21.5727C21.6386 12.5338 21.7083 12.528 21.7863 12.528C22.0604 12.5159 22.3989 12.5043 22.5408 12.6413C22.6309 12.7294 22.6832 12.9252 22.6832 13.1876V14.9271V15.0045C22.672 15.3624 22.6701 15.9649 23.073 16.374C23.2299 16.5358 23.5214 16.7275 23.997 16.7275H26.6707C26.9515 16.7275 27.1821 16.496 27.1821 16.205C27.1821 15.9207 26.9515 15.6844 26.6707 15.6844H23.997L23.8101 15.6403C23.7151 15.5421 23.7214 15.1847 23.7214 15.0132V13.1875C23.7214 12.6238 23.5636 12.188 23.2624 11.8969C22.7984 11.4519 22.1674 11.4703 21.7514 11.4877C21.6826 11.4877 21.6255 11.4902 21.5727 11.4902H19.8575C19.8778 11.3468 19.8778 11.2025 19.8725 11.0727V9.56326C19.8725 9.27949 19.6391 9.04504 19.3558 9.04504C19.0667 9.04504 18.8401 9.27943 18.8401 9.56326V11.0809C18.8401 11.2025 18.8401 11.3947 18.8144 11.4446C18.8144 11.4446 18.7432 11.4901 18.4691 11.4901C18.3902 11.4901 18.3055 11.4901 18.2129 11.4901C17.5064 11.4814 16.6938 11.479 16.2106 11.9535C16.0527 12.1133 15.8551 12.4024 15.8551 12.864V15.698H15.855Z" fill="white"/>
<path d="M14.1857 11.4544C14.4757 11.4544 14.7082 11.2166 14.7082 10.9333V10.1899H15.5794C15.8612 10.1899 16.0942 9.95651 16.0942 9.66743C16.0942 9.38514 15.8612 9.14828 15.5794 9.14828H14.7082V8.57587C14.7082 8.28969 14.4757 8.05481 14.1857 8.05481C13.9038 8.05481 13.6709 8.28964 13.6709 8.57587V10.9333C13.6709 11.2166 13.9038 11.4544 14.1857 11.4544Z" fill="white"/>
<path d="M8.56164 12.2185H10.72C11.0721 12.206 11.4072 12.206 11.5651 12.372C11.705 12.5086 11.782 12.8156 11.782 13.2563V15.2825C11.782 15.5692 12.0135 15.8046 12.306 15.8046C12.5878 15.8046 12.8232 15.5693 12.8232 15.2825V14.8515H13.6373C13.9244 14.8515 14.1535 14.6176 14.1535 14.3314C14.1535 14.0442 13.9245 13.8065 13.6373 13.8065H12.8232V13.2563C12.8232 12.5086 12.6518 11.9793 12.2968 11.6301C11.8363 11.1681 11.214 11.1725 10.7176 11.1769H8.56164C8.2672 11.1769 8.0415 11.4127 8.0415 11.695C8.0415 11.9836 8.2672 12.2185 8.56164 12.2185Z" fill="white"/>
<path d="M9.93137 15.2492C9.93137 14.9621 9.69266 14.7267 9.41277 14.7267H5.76961C5.48195 14.7267 5.24707 14.9621 5.24707 15.2492C5.24707 15.5354 5.48195 15.7703 5.76961 15.7703H7.0902V16.7185C7.0902 17.0076 7.31923 17.2391 7.6035 17.2391C7.89892 17.2391 8.12795 17.0076 8.12795 16.7185V15.7703H9.41277C9.69266 15.7703 9.93137 15.5353 9.93137 15.2492Z" fill="white"/>
<path d="M13.1406 18.6569C13.2316 18.6569 13.3179 18.6569 13.3948 18.6569H17.5896C18.5465 18.6569 19.2724 18.4031 19.7552 17.8976C20.4971 17.1121 20.4453 15.9488 20.407 15.1803C20.4002 15.0336 20.3934 14.8956 20.3934 14.7798C20.3934 14.4902 20.161 14.2598 19.868 14.2598C19.5847 14.2598 19.3557 14.4903 19.3557 14.7798C19.3557 14.9115 19.3625 15.0626 19.3692 15.2234C19.4012 15.8937 19.4371 16.7184 18.9944 17.1852C18.7242 17.4729 18.2462 17.6167 17.5896 17.6167H13.3948C13.3217 17.6167 13.2472 17.6167 13.157 17.6167C12.3294 17.6041 10.9376 17.5818 10.0534 18.4545C9.55745 18.9436 9.30518 19.6327 9.30518 20.4995C9.30518 20.7813 9.53322 21.0202 9.82383 21.0202C10.1071 21.0202 10.3439 20.7814 10.3439 20.4995C10.3439 19.9107 10.4858 19.4835 10.7841 19.1915C11.3555 18.6307 12.4316 18.6472 13.1406 18.6569Z" fill="white"/>
<path d="M20.2162 20.9101C20.2162 20.6278 19.9881 20.3905 19.698 20.3905H13.1149C12.831 20.3905 12.5933 20.6278 12.5933 20.9101C12.5933 21.1982 12.831 21.4307 13.1149 21.4307H15.1279V22.469C15.1279 22.7601 15.359 22.9886 15.6451 22.9886C15.9323 22.9886 16.1643 22.7601 16.1643 22.469V21.4307H19.698C19.988 21.4307 20.2162 21.1982 20.2162 20.9101Z" fill="white"/>
<path d="M23.1659 22.9583H22.9214V21.9907C22.9214 21.6962 22.6928 21.4696 22.4032 21.4696C22.1156 21.4696 21.8836 21.6963 21.8836 21.9907V22.9583H20.0821C19.7955 22.9583 19.5625 23.1902 19.5625 23.4793C19.5625 23.765 19.7955 23.996 20.0821 23.996H23.166C23.4508 23.996 23.6846 23.765 23.6846 23.4793C23.6846 23.1901 23.4507 22.9583 23.1659 22.9583Z" fill="white"/>
<path d="M25.555 20.3906V19.5417H25.742C26.035 19.5417 26.2669 19.3136 26.2669 19.026C26.2669 18.7388 26.035 18.5034 25.742 18.5034H22.1075C21.8218 18.5034 21.5874 18.7388 21.5874 19.026C21.5874 19.3136 21.8218 19.5417 22.1075 19.5417H24.5128V20.3906C24.5128 20.6836 24.7487 20.9102 25.0354 20.9102C25.3216 20.9102 25.555 20.6836 25.555 20.3906Z" fill="white"/>
<path d="M27.1821 21.7466H25.8673C25.5772 21.7466 25.3452 21.9752 25.3452 22.2643C25.3452 22.5534 25.5771 22.78 25.8673 22.78H27.1821C27.4735 22.78 27.7079 22.5534 27.7079 22.2643C27.708 21.9752 27.4735 21.7466 27.1821 21.7466Z" fill="white"/>
</svg>
