<svg width="61" height="61" viewBox="0 0 61 61" fill="none" xmlns="http://www.w3.org/2000/svg">
<path d="M60.07 17.1946C59.0034 13.4441 56.9847 9.90004 54.0256 6.94091C51.078 3.99325 47.5568 1.99756 43.7948 0.930896C40.9619 0.128031 38.0371 -0.170176 35.1124 0.0936228C40.4916 0.563872 45.7102 2.85777 49.8278 6.96385C57.5353 14.6713 58.8543 26.3473 53.7618 35.3967C55.3561 27.8039 53.2228 19.5803 47.3045 13.662C39.1956 5.5531 26.6021 4.53232 17.3806 10.6685C16.0731 11.5402 14.8458 12.538 13.6759 13.6964L6.95482 20.4176C4.00716 23.3652 1.98853 26.8864 0.921866 30.6484C-0.30537 34.9379 -0.30537 39.5143 0.910396 43.7695C1.97706 47.5429 3.99569 51.0755 6.94335 54.0232C9.89101 56.9708 13.4695 59.0009 17.22 60.0676C20.0415 60.8819 23.0006 61.1687 25.9368 60.9049C20.5462 60.4346 15.2817 58.1407 11.1756 54.0232C3.46809 46.3157 2.16057 34.6512 7.24156 25.6018C5.63583 33.1946 7.80356 41.3953 13.6874 47.2791C21.8308 55.4225 34.3898 56.4432 43.6113 50.33C44.9188 49.4583 46.169 48.4605 47.316 47.3135L54.0486 40.5809C56.9962 37.6333 59.0148 34.0892 60.0815 30.3387C61.3087 26.0491 61.3087 21.4842 60.0815 17.1946H60.07ZM38.8974 38.8949C34.2637 43.5286 26.7168 43.5286 22.0945 38.8949C17.4379 34.2612 17.4379 26.7143 22.0831 22.0806C26.7168 17.447 34.2637 17.447 38.9088 22.0806C43.531 26.7143 43.531 34.2612 38.8974 38.8949Z" fill="black"/>
</svg>
