<svg width="24" height="24" viewBox="0 0 24 24" fill="none" xmlns="http://www.w3.org/2000/svg">
<path d="M7.33333 18.6667C7.88889 18.6667 8.36111 18.4722 8.75 18.0833C9.13889 17.6944 9.33333 17.2222 9.33333 16.6667C9.33333 16.1111 9.13889 15.6389 8.75 15.25C8.36111 14.8611 7.88889 14.6667 7.33333 14.6667C6.77778 14.6667 6.30556 14.8611 5.91667 15.25C5.52778 15.6389 5.33333 16.1111 5.33333 16.6667C5.33333 17.2222 5.52778 17.6944 5.91667 18.0833C6.30556 18.4722 6.77778 18.6667 7.33333 18.6667ZM7.33333 9.33333C7.88889 9.33333 8.36111 9.13889 8.75 8.75C9.13889 8.36111 9.33333 7.88889 9.33333 7.33333C9.33333 6.77778 9.13889 6.30556 8.75 5.91667C8.36111 5.52778 7.88889 5.33333 7.33333 5.33333C6.77778 5.33333 6.30556 5.52778 5.91667 5.91667C5.52778 6.30556 5.33333 6.77778 5.33333 7.33333C5.33333 7.88889 5.52778 8.36111 5.91667 8.75C6.30556 9.13889 6.77778 9.33333 7.33333 9.33333ZM16.6667 18.6667C17.2222 18.6667 17.6944 18.4722 18.0833 18.0833C18.4722 17.6944 18.6667 17.2222 18.6667 16.6667C18.6667 16.1111 18.4722 15.6389 18.0833 15.25C17.6944 14.8611 17.2222 14.6667 16.6667 14.6667C16.1111 14.6667 15.6389 14.8611 15.25 15.25C14.8611 15.6389 14.6667 16.1111 14.6667 16.6667C14.6667 17.2222 14.8611 17.6944 15.25 18.0833C15.6389 18.4722 16.1111 18.6667 16.6667 18.6667ZM16.6667 9.33333C17.2222 9.33333 17.6944 9.13889 18.0833 8.75C18.4722 8.36111 18.6667 7.88889 18.6667 7.33333C18.6667 6.77778 18.4722 6.30556 18.0833 5.91667C17.6944 5.52778 17.2222 5.33333 16.6667 5.33333C16.1111 5.33333 15.6389 5.52778 15.25 5.91667C14.8611 6.30556 14.6667 6.77778 14.6667 7.33333C14.6667 7.88889 14.8611 8.36111 15.25 8.75C15.6389 9.13889 16.1111 9.33333 16.6667 9.33333ZM2.66667 24C1.93333 24 1.30556 23.7389 0.783333 23.2167C0.261111 22.6944 0 22.0667 0 21.3333V2.66667C0 1.93333 0.261111 1.30556 0.783333 0.783333C1.30556 0.261111 1.93333 0 2.66667 0H21.3333C22.0667 0 22.6944 0.261111 23.2167 0.783333C23.7389 1.30556 24 1.93333 24 2.66667V21.3333C24 22.0667 23.7389 22.6944 23.2167 23.2167C22.6944 23.7389 22.0667 24 21.3333 24H2.66667ZM2.66667 21.3333H21.3333V2.66667H2.66667V21.3333Z" fill="#6D6D6D"/>
</svg>
